<svg fill="none" height="24" viewBox="0 0 24 24" width="24" xmlns="http://www.w3.org/2000/svg"><g stroke="#292d32" stroke-linecap="round" stroke-linejoin="round" stroke-miterlimit="10" stroke-width="1.5"><path d="m19 2h-2c-2 0-3 1-3 3v2c0 2 1 3 3 3h2c2 0 3-1 3-3v-2"/><path d="m5 22h2c2 0 3-1 3-3v-2c0-2-1-3-3-3h-2c-2 0-3 1-3 3v2"/><path d="m6 10c2.20914 0 4-1.79086 4-4s-1.79086-4-4-4-4 1.79086-4 4 1.79086 4 4 4z"/><path d="m18 22c2.2091 0 4-1.7909 4-4s-1.7909-4-4-4-4 1.7909-4 4 1.7909 4 4 4z"/></g></svg>